<?xml version="1.0" encoding="UTF-8"?>
<svg id="Layer_2" data-name="Layer 2" xmlns="http://www.w3.org/2000/svg" viewBox="0 0 275.04 63.96">
  <defs>
    <style>
      .cls-1 {
        fill: #ffdf5a;
      }

      .cls-2 {
        fill: #ff88be;
      }

      .cls-3 {
        fill: #c5e24b;
      }
    </style>
  </defs>
  <g id="_ÎÓÈ_1" data-name="—ÎÓÈ_1">
    <g>
      <g>
        <circle class="cls-3" cx="243.07" cy="31.98" r="30.03" transform="translate(209.38 274.82) rotate(-89.6)"/>
        <path d="M243.07,63.96c-17.63,0-31.98-14.34-31.98-31.98S225.44,0,243.07,0s31.98,14.35,31.98,31.98-14.34,31.98-31.98,31.98ZM243.07,3.9c-15.48,0-28.08,12.6-28.08,28.08s12.6,28.08,28.08,28.08,28.08-12.6,28.08-28.08-12.6-28.08-28.08-28.08Z"/>
      </g>
      <g>
        <circle class="cls-1" cx="137.52" cy="31.98" r="30.03" transform="translate(104.56 169.27) rotate(-89.59)"/>
        <path d="M137.52,63.96c-17.63,0-31.98-14.34-31.98-31.98S119.89,0,137.52,0s31.98,14.35,31.98,31.98-14.34,31.98-31.98,31.98ZM137.52,3.9c-15.48,0-28.08,12.6-28.08,28.08s12.6,28.08,28.08,28.08,28.08-12.6,28.08-28.08-12.6-28.08-28.08-28.08Z"/>
      </g>
      <g>
        <circle class="cls-2" cx="31.98" cy="31.98" r="30.03" transform="translate(-.23 63.73) rotate(-89.6)"/>
        <path d="M31.98,63.96C14.35,63.96,0,49.61,0,31.98S14.35,0,31.98,0s31.98,14.35,31.98,31.98-14.35,31.98-31.98,31.98ZM31.98,3.9C16.5,3.9,3.9,16.5,3.9,31.98s12.6,28.08,28.08,28.08,28.08-12.6,28.08-28.08S47.46,3.9,31.98,3.9Z"/>
      </g>
    </g>
  </g>
</svg>