<?xml version="1.0" encoding="UTF-8"?>
<svg id="Layer_2" data-name="Layer 2" xmlns="http://www.w3.org/2000/svg" viewBox="0 0 215.05 140.25">
  <defs>
    <style>
      .cls-1 {
        fill: #283a4b;
      }

      .cls-2 {
        fill: #ffc851;
      }

      .cls-3 {
        fill: #fefefe;
      }
    </style>
  </defs>
  <g id="_Layer_" data-name="&amp;lt;Layer&amp;gt;">
    <g>
      <rect class="cls-1" width="9.35" height="9.35"/>
      <rect class="cls-1" x="9.35" width="9.35" height="9.35"/>
      <rect class="cls-1" x="18.7" width="9.35" height="9.35"/>
      <rect class="cls-1" x="28.05" width="9.35" height="9.35"/>
      <rect class="cls-1" x="37.4" width="9.35" height="9.35"/>
      <rect class="cls-1" x="46.75" width="9.35" height="9.35"/>
      <rect class="cls-1" x="56.1" width="9.35" height="9.35"/>
      <rect class="cls-1" x="65.45" width="9.35" height="9.35"/>
      <rect class="cls-1" x="74.8" width="9.35" height="9.35"/>
      <rect class="cls-1" y="9.35" width="9.35" height="9.35"/>
      <rect class="cls-2" x="9.35" y="9.35" width="9.35" height="9.35"/>
      <rect class="cls-2" x="18.7" y="9.35" width="9.35" height="9.35"/>
      <rect class="cls-2" x="28.05" y="9.35" width="9.35" height="9.35"/>
      <rect class="cls-2" x="37.4" y="9.35" width="9.35" height="9.35"/>
      <rect class="cls-2" x="46.75" y="9.35" width="9.35" height="9.35"/>
      <rect class="cls-2" x="56.1" y="9.35" width="9.35" height="9.35"/>
      <rect class="cls-2" x="65.45" y="9.35" width="9.35" height="9.35"/>
      <rect class="cls-2" x="74.8" y="9.35" width="9.35" height="9.35"/>
      <rect class="cls-1" x="84.15" y="9.35" width="9.35" height="9.35"/>
      <rect class="cls-1" y="18.7" width="9.35" height="9.35"/>
      <rect class="cls-2" x="9.35" y="18.7" width="9.35" height="9.35"/>
      <rect class="cls-2" x="18.7" y="18.7" width="9.35" height="9.35"/>
      <rect class="cls-2" x="28.05" y="18.7" width="9.35" height="9.35"/>
      <rect class="cls-2" x="37.4" y="18.7" width="9.35" height="9.35"/>
      <rect class="cls-2" x="46.75" y="18.7" width="9.35" height="9.35"/>
      <rect class="cls-2" x="56.1" y="18.7" width="9.35" height="9.35"/>
      <rect class="cls-2" x="65.45" y="18.7" width="9.35" height="9.35"/>
      <rect class="cls-2" x="74.8" y="18.7" width="9.35" height="9.35"/>
      <rect class="cls-2" x="84.15" y="18.7" width="9.35" height="9.35"/>
      <rect class="cls-1" x="93.5" y="18.7" width="9.35" height="9.35"/>
      <rect class="cls-1" y="28.05" width="9.35" height="9.35"/>
      <rect class="cls-2" x="9.35" y="28.05" width="9.35" height="9.35"/>
      <rect class="cls-1" x="18.7" y="28.05" width="9.35" height="9.35"/>
      <rect class="cls-1" x="28.05" y="28.05" width="9.35" height="9.35"/>
      <rect class="cls-1" x="37.4" y="28.05" width="9.35" height="9.35"/>
      <rect class="cls-1" x="46.75" y="28.05" width="9.35" height="9.35"/>
      <rect class="cls-1" x="56.1" y="28.05" width="9.35" height="9.35"/>
      <rect class="cls-1" x="65.45" y="28.05" width="9.35" height="9.35"/>
      <rect class="cls-1" x="74.8" y="28.05" width="9.35" height="9.35"/>
      <rect class="cls-1" x="84.15" y="28.05" width="9.35" height="9.35"/>
      <rect class="cls-1" x="93.5" y="28.05" width="9.35" height="9.35"/>
      <rect class="cls-1" x="102.85" y="28.05" width="9.35" height="9.35"/>
      <rect class="cls-1" x="112.2" y="28.05" width="9.35" height="9.35"/>
      <rect class="cls-1" x="121.55" y="28.05" width="9.35" height="9.35"/>
      <rect class="cls-1" x="130.9" y="28.05" width="9.35" height="9.35"/>
      <rect class="cls-1" x="140.25" y="28.05" width="9.35" height="9.35"/>
      <rect class="cls-1" x="149.6" y="28.05" width="9.35" height="9.35"/>
      <rect class="cls-1" x="158.95" y="28.05" width="9.35" height="9.35"/>
      <rect class="cls-1" x="168.3" y="28.05" width="9.35" height="9.35"/>
      <rect class="cls-1" y="37.4" width="9.35" height="9.35"/>
      <rect class="cls-2" x="9.35" y="37.4" width="9.35" height="9.35"/>
      <rect class="cls-1" x="18.7" y="37.4" width="9.35" height="9.35"/>
      <rect class="cls-3" x="28.05" y="37.4" width="9.35" height="9.35"/>
      <rect class="cls-3" x="37.4" y="37.4" width="9.35" height="9.35"/>
      <rect class="cls-3" x="46.75" y="37.4" width="9.35" height="9.35"/>
      <rect class="cls-3" x="56.1" y="37.4" width="9.35" height="9.35"/>
      <rect class="cls-3" x="65.45" y="37.4" width="9.35" height="9.35"/>
      <rect class="cls-3" x="74.8" y="37.4" width="9.35" height="9.35"/>
      <rect class="cls-3" x="84.15" y="37.4" width="9.35" height="9.35"/>
      <rect class="cls-3" x="93.5" y="37.4" width="9.35" height="9.35"/>
      <rect class="cls-3" x="102.85" y="37.4" width="9.35" height="9.35"/>
      <rect class="cls-3" x="112.2" y="37.4" width="9.35" height="9.35"/>
      <rect class="cls-3" x="121.55" y="37.4" width="9.35" height="9.35"/>
      <rect class="cls-3" x="130.9" y="37.4" width="9.35" height="9.35"/>
      <rect class="cls-3" x="140.25" y="37.4" width="9.35" height="9.35"/>
      <rect class="cls-3" x="149.6" y="37.4" width="9.35" height="9.35"/>
      <rect class="cls-3" x="158.95" y="37.4" width="9.35" height="9.35"/>
      <rect class="cls-1" x="168.3" y="37.4" width="9.35" height="9.35"/>
      <rect class="cls-1" y="46.75" width="9.35" height="9.35"/>
      <rect class="cls-2" x="9.35" y="46.75" width="9.35" height="9.35"/>
      <rect class="cls-1" x="18.7" y="46.75" width="9.35" height="9.35"/>
      <rect class="cls-3" x="28.05" y="46.75" width="9.35" height="9.35"/>
      <rect class="cls-3" x="37.4" y="46.75" width="9.35" height="9.35"/>
      <rect class="cls-1" x="46.75" y="46.75" width="9.35" height="9.35"/>
      <rect class="cls-1" x="56.1" y="46.75" width="9.35" height="9.35"/>
      <rect class="cls-1" x="65.45" y="46.75" width="9.35" height="9.35"/>
      <rect class="cls-1" x="74.8" y="46.75" width="9.35" height="9.35"/>
      <rect class="cls-1" x="84.15" y="46.75" width="9.35" height="9.35"/>
      <rect class="cls-1" x="93.5" y="46.75" width="9.35" height="9.35"/>
      <rect class="cls-1" x="102.85" y="46.75" width="9.35" height="9.35"/>
      <rect class="cls-1" x="112.2" y="46.75" width="9.35" height="9.35"/>
      <rect class="cls-1" x="121.55" y="46.75" width="9.35" height="9.35"/>
      <rect class="cls-1" x="130.9" y="46.75" width="9.35" height="9.35"/>
      <rect class="cls-1" x="140.25" y="46.75" width="9.35" height="9.35"/>
      <rect class="cls-1" x="149.6" y="46.75" width="9.35" height="9.35"/>
      <rect class="cls-1" x="158.95" y="46.75" width="9.35" height="9.35"/>
      <rect class="cls-1" x="168.3" y="46.75" width="9.35" height="9.35"/>
      <rect class="cls-1" x="177.65" y="46.75" width="9.35" height="9.35"/>
      <rect class="cls-1" x="187" y="46.75" width="9.35" height="9.35"/>
      <rect class="cls-1" x="196.35" y="46.75" width="9.35" height="9.35"/>
      <rect class="cls-1" x="205.7" y="46.75" width="9.35" height="9.35"/>
      <rect class="cls-1" y="56.1" width="9.35" height="9.35"/>
      <rect class="cls-2" x="9.35" y="56.1" width="9.35" height="9.35"/>
      <rect class="cls-1" x="18.7" y="56.1" width="9.35" height="9.35"/>
      <rect class="cls-3" x="28.05" y="56.1" width="9.35" height="9.35"/>
      <rect class="cls-1" x="37.4" y="56.1" width="9.35" height="9.35"/>
      <rect class="cls-2" x="46.75" y="56.1" width="9.35" height="9.35"/>
      <rect class="cls-2" x="56.1" y="56.1" width="9.35" height="9.35"/>
      <rect class="cls-2" x="65.45" y="56.1" width="9.35" height="9.35"/>
      <rect class="cls-2" x="74.8" y="56.1" width="9.35" height="9.35"/>
      <rect class="cls-2" x="84.15" y="56.1" width="9.35" height="9.35"/>
      <rect class="cls-2" x="93.5" y="56.1" width="9.35" height="9.35"/>
      <rect class="cls-2" x="102.85" y="56.1" width="9.35" height="9.35"/>
      <rect class="cls-2" x="112.2" y="56.1" width="9.35" height="9.35"/>
      <rect class="cls-2" x="121.55" y="56.1" width="9.35" height="9.35"/>
      <rect class="cls-2" x="130.9" y="56.1" width="9.35" height="9.35"/>
      <rect class="cls-2" x="140.25" y="56.1" width="9.35" height="9.35"/>
      <rect class="cls-2" x="149.6" y="56.1" width="9.35" height="9.35"/>
      <rect class="cls-2" x="158.95" y="56.1" width="9.35" height="9.35"/>
      <rect class="cls-2" x="168.3" y="56.1" width="9.35" height="9.35"/>
      <rect class="cls-2" x="177.65" y="56.1" width="9.35" height="9.35"/>
      <rect class="cls-2" x="187" y="56.1" width="9.35" height="9.35"/>
      <rect class="cls-2" x="196.35" y="56.1" width="9.35" height="9.35"/>
      <rect class="cls-1" x="205.7" y="56.1" width="9.35" height="9.35"/>
      <rect class="cls-1" y="65.45" width="9.35" height="9.35"/>
      <rect class="cls-2" x="9.35" y="65.45" width="9.35" height="9.35"/>
      <rect class="cls-1" x="18.7" y="65.45" width="9.35" height="9.35"/>
      <rect class="cls-3" x="28.05" y="65.45" width="9.35" height="9.35"/>
      <rect class="cls-1" x="37.4" y="65.45" width="9.35" height="9.35"/>
      <rect class="cls-2" x="46.75" y="65.45" width="9.35" height="9.35"/>
      <rect class="cls-2" x="56.1" y="65.45" width="9.35" height="9.35"/>
      <rect class="cls-2" x="65.45" y="65.45" width="9.35" height="9.35"/>
      <rect class="cls-2" x="74.8" y="65.45" width="9.35" height="9.35"/>
      <rect class="cls-2" x="84.15" y="65.45" width="9.35" height="9.35"/>
      <rect class="cls-2" x="93.5" y="65.45" width="9.35" height="9.35"/>
      <rect class="cls-2" x="102.85" y="65.45" width="9.35" height="9.35"/>
      <rect class="cls-2" x="112.2" y="65.45" width="9.35" height="9.35"/>
      <rect class="cls-2" x="121.55" y="65.45" width="9.35" height="9.35"/>
      <rect class="cls-2" x="130.9" y="65.45" width="9.35" height="9.35"/>
      <rect class="cls-2" x="140.25" y="65.45" width="9.35" height="9.35"/>
      <rect class="cls-2" x="149.6" y="65.45" width="9.35" height="9.35"/>
      <rect class="cls-2" x="158.95" y="65.45" width="9.35" height="9.35"/>
      <rect class="cls-2" x="168.3" y="65.45" width="9.35" height="9.35"/>
      <rect class="cls-2" x="177.65" y="65.45" width="9.35" height="9.35"/>
      <rect class="cls-2" x="187" y="65.45" width="9.35" height="9.35"/>
      <rect class="cls-1" x="196.35" y="65.45" width="9.35" height="9.35"/>
      <rect class="cls-1" y="74.8" width="9.35" height="9.35"/>
      <rect class="cls-2" x="9.35" y="74.8" width="9.35" height="9.35"/>
      <rect class="cls-1" x="18.7" y="74.8" width="9.35" height="9.35"/>
      <rect class="cls-1" x="28.05" y="74.8" width="9.35" height="9.35"/>
      <rect class="cls-2" x="37.4" y="74.8" width="9.35" height="9.35"/>
      <rect class="cls-2" x="46.75" y="74.8" width="9.35" height="9.35"/>
      <rect class="cls-2" x="56.1" y="74.8" width="9.35" height="9.35"/>
      <rect class="cls-2" x="65.45" y="74.8" width="9.35" height="9.35"/>
      <rect class="cls-2" x="74.8" y="74.8" width="9.35" height="9.35"/>
      <rect class="cls-2" x="84.15" y="74.8" width="9.35" height="9.35"/>
      <rect class="cls-2" x="93.5" y="74.8" width="9.35" height="9.35"/>
      <rect class="cls-2" x="102.85" y="74.8" width="9.35" height="9.35"/>
      <rect class="cls-2" x="112.2" y="74.8" width="9.35" height="9.35"/>
      <rect class="cls-2" x="121.55" y="74.8" width="9.35" height="9.35"/>
      <rect class="cls-2" x="130.9" y="74.8" width="9.35" height="9.35"/>
      <rect class="cls-2" x="140.25" y="74.8" width="9.35" height="9.35"/>
      <rect class="cls-2" x="149.6" y="74.8" width="9.35" height="9.35"/>
      <rect class="cls-2" x="158.95" y="74.8" width="9.35" height="9.35"/>
      <rect class="cls-2" x="168.3" y="74.8" width="9.35" height="9.35"/>
      <rect class="cls-2" x="177.65" y="74.8" width="9.35" height="9.35"/>
      <rect class="cls-2" x="187" y="74.8" width="9.35" height="9.35"/>
      <rect class="cls-1" x="196.35" y="74.8" width="9.35" height="9.35"/>
      <rect class="cls-1" y="84.15" width="9.35" height="9.35"/>
      <rect class="cls-2" x="9.35" y="84.15" width="9.35" height="9.35"/>
      <rect class="cls-1" x="18.7" y="84.15" width="9.35" height="9.35"/>
      <rect class="cls-1" x="28.05" y="84.15" width="9.35" height="9.35"/>
      <rect class="cls-2" x="37.4" y="84.15" width="9.35" height="9.35"/>
      <rect class="cls-2" x="46.75" y="84.15" width="9.35" height="9.35"/>
      <rect class="cls-2" x="56.1" y="84.15" width="9.35" height="9.35"/>
      <rect class="cls-2" x="65.45" y="84.15" width="9.35" height="9.35"/>
      <rect class="cls-2" x="74.8" y="84.15" width="9.35" height="9.35"/>
      <rect class="cls-2" x="84.15" y="84.15" width="9.35" height="9.35"/>
      <rect class="cls-2" x="93.5" y="84.15" width="9.35" height="9.35"/>
      <rect class="cls-2" x="102.85" y="84.15" width="9.35" height="9.35"/>
      <rect class="cls-2" x="112.2" y="84.15" width="9.35" height="9.35"/>
      <rect class="cls-2" x="121.55" y="84.15" width="9.35" height="9.35"/>
      <rect class="cls-2" x="130.9" y="84.15" width="9.35" height="9.35"/>
      <rect class="cls-2" x="140.25" y="84.15" width="9.35" height="9.35"/>
      <rect class="cls-2" x="149.6" y="84.15" width="9.35" height="9.35"/>
      <rect class="cls-2" x="158.95" y="84.15" width="9.35" height="9.35"/>
      <rect class="cls-2" x="168.3" y="84.15" width="9.35" height="9.35"/>
      <rect class="cls-2" x="177.65" y="84.15" width="9.35" height="9.35"/>
      <rect class="cls-1" x="187" y="84.15" width="9.35" height="9.35"/>
      <rect class="cls-1" y="93.5" width="9.35" height="9.35"/>
      <rect class="cls-2" x="9.35" y="93.5" width="9.35" height="9.35"/>
      <rect class="cls-1" x="18.7" y="93.5" width="9.35" height="9.35"/>
      <rect class="cls-2" x="28.05" y="93.5" width="9.35" height="9.35"/>
      <rect class="cls-2" x="37.4" y="93.5" width="9.35" height="9.35"/>
      <rect class="cls-2" x="46.75" y="93.5" width="9.35" height="9.35"/>
      <rect class="cls-2" x="56.1" y="93.5" width="9.35" height="9.35"/>
      <rect class="cls-2" x="65.45" y="93.5" width="9.35" height="9.35"/>
      <rect class="cls-2" x="74.8" y="93.5" width="9.35" height="9.35"/>
      <rect class="cls-2" x="84.15" y="93.5" width="9.35" height="9.35"/>
      <rect class="cls-2" x="93.5" y="93.5" width="9.35" height="9.35"/>
      <rect class="cls-2" x="102.85" y="93.5" width="9.35" height="9.35"/>
      <rect class="cls-2" x="112.2" y="93.5" width="9.35" height="9.35"/>
      <rect class="cls-2" x="121.55" y="93.5" width="9.35" height="9.35"/>
      <rect class="cls-2" x="130.9" y="93.5" width="9.35" height="9.35"/>
      <rect class="cls-2" x="140.25" y="93.5" width="9.35" height="9.35"/>
      <rect class="cls-2" x="149.6" y="93.5" width="9.35" height="9.35"/>
      <rect class="cls-2" x="158.95" y="93.5" width="9.35" height="9.35"/>
      <rect class="cls-2" x="168.3" y="93.5" width="9.35" height="9.35"/>
      <rect class="cls-2" x="177.65" y="93.5" width="9.35" height="9.35"/>
      <rect class="cls-1" x="187" y="93.5" width="9.35" height="9.35"/>
      <rect class="cls-1" y="102.85" width="9.35" height="9.35"/>
      <rect class="cls-2" x="9.35" y="102.85" width="9.35" height="9.35"/>
      <rect class="cls-1" x="18.7" y="102.85" width="9.35" height="9.35"/>
      <rect class="cls-2" x="28.05" y="102.85" width="9.35" height="9.35"/>
      <rect class="cls-2" x="37.4" y="102.85" width="9.35" height="9.35"/>
      <rect class="cls-2" x="46.75" y="102.85" width="9.35" height="9.35"/>
      <rect class="cls-2" x="56.1" y="102.85" width="9.35" height="9.35"/>
      <rect class="cls-2" x="65.45" y="102.85" width="9.35" height="9.35"/>
      <rect class="cls-2" x="74.8" y="102.85" width="9.35" height="9.35"/>
      <rect class="cls-2" x="84.15" y="102.85" width="9.35" height="9.35"/>
      <rect class="cls-2" x="93.5" y="102.85" width="9.35" height="9.35"/>
      <rect class="cls-2" x="102.85" y="102.85" width="9.35" height="9.35"/>
      <rect class="cls-2" x="112.2" y="102.85" width="9.35" height="9.35"/>
      <rect class="cls-2" x="121.55" y="102.85" width="9.35" height="9.35"/>
      <rect class="cls-2" x="130.9" y="102.85" width="9.35" height="9.35"/>
      <rect class="cls-2" x="140.25" y="102.85" width="9.35" height="9.35"/>
      <rect class="cls-2" x="149.6" y="102.85" width="9.35" height="9.35"/>
      <rect class="cls-2" x="158.95" y="102.85" width="9.35" height="9.35"/>
      <rect class="cls-2" x="168.3" y="102.85" width="9.35" height="9.35"/>
      <rect class="cls-1" x="177.65" y="102.85" width="9.35" height="9.35"/>
      <rect class="cls-1" y="112.2" width="9.35" height="9.35"/>
      <rect class="cls-1" x="9.35" y="112.2" width="9.35" height="9.35"/>
      <rect class="cls-2" x="18.7" y="112.2" width="9.35" height="9.35"/>
      <rect class="cls-2" x="28.05" y="112.2" width="9.35" height="9.35"/>
      <rect class="cls-2" x="37.4" y="112.2" width="9.35" height="9.35"/>
      <rect class="cls-2" x="46.75" y="112.2" width="9.35" height="9.35"/>
      <rect class="cls-2" x="56.1" y="112.2" width="9.35" height="9.35"/>
      <rect class="cls-2" x="65.45" y="112.2" width="9.35" height="9.35"/>
      <rect class="cls-2" x="74.8" y="112.2" width="9.35" height="9.35"/>
      <rect class="cls-2" x="84.15" y="112.2" width="9.35" height="9.35"/>
      <rect class="cls-2" x="93.5" y="112.2" width="9.35" height="9.35"/>
      <rect class="cls-2" x="102.85" y="112.2" width="9.35" height="9.35"/>
      <rect class="cls-2" x="112.2" y="112.2" width="9.35" height="9.35"/>
      <rect class="cls-2" x="121.55" y="112.2" width="9.35" height="9.35"/>
      <rect class="cls-2" x="130.9" y="112.2" width="9.35" height="9.35"/>
      <rect class="cls-2" x="140.25" y="112.2" width="9.35" height="9.35"/>
      <rect class="cls-2" x="149.6" y="112.2" width="9.35" height="9.35"/>
      <rect class="cls-2" x="158.95" y="112.2" width="9.35" height="9.35"/>
      <rect class="cls-2" x="168.3" y="112.2" width="9.35" height="9.35"/>
      <rect class="cls-1" x="177.65" y="112.2" width="9.35" height="9.35"/>
      <rect class="cls-1" y="121.55" width="9.35" height="9.35"/>
      <rect class="cls-1" x="9.35" y="121.55" width="9.35" height="9.35"/>
      <rect class="cls-2" x="18.7" y="121.55" width="9.35" height="9.35"/>
      <rect class="cls-2" x="28.05" y="121.55" width="9.35" height="9.35"/>
      <rect class="cls-2" x="37.4" y="121.55" width="9.35" height="9.35"/>
      <rect class="cls-2" x="46.75" y="121.55" width="9.35" height="9.35"/>
      <rect class="cls-2" x="56.1" y="121.55" width="9.35" height="9.35"/>
      <rect class="cls-2" x="65.45" y="121.55" width="9.35" height="9.35"/>
      <rect class="cls-2" x="74.8" y="121.55" width="9.35" height="9.35"/>
      <rect class="cls-2" x="84.15" y="121.55" width="9.35" height="9.35"/>
      <rect class="cls-2" x="93.5" y="121.55" width="9.35" height="9.35"/>
      <rect class="cls-2" x="102.85" y="121.55" width="9.35" height="9.35"/>
      <rect class="cls-2" x="112.2" y="121.55" width="9.35" height="9.35"/>
      <rect class="cls-2" x="121.55" y="121.55" width="9.35" height="9.35"/>
      <rect class="cls-2" x="130.9" y="121.55" width="9.35" height="9.35"/>
      <rect class="cls-2" x="140.25" y="121.55" width="9.35" height="9.35"/>
      <rect class="cls-2" x="149.6" y="121.55" width="9.35" height="9.35"/>
      <rect class="cls-2" x="158.95" y="121.55" width="9.35" height="9.35"/>
      <rect class="cls-1" x="168.3" y="121.55" width="9.35" height="9.35"/>
      <rect class="cls-1" y="130.9" width="9.35" height="9.35"/>
      <rect class="cls-1" x="9.35" y="130.9" width="9.35" height="9.35"/>
      <rect class="cls-1" x="18.7" y="130.9" width="9.35" height="9.35"/>
      <rect class="cls-1" x="28.05" y="130.9" width="9.35" height="9.35"/>
      <rect class="cls-1" x="37.4" y="130.9" width="9.35" height="9.35"/>
      <rect class="cls-1" x="46.75" y="130.9" width="9.35" height="9.35"/>
      <rect class="cls-1" x="56.1" y="130.9" width="9.35" height="9.35"/>
      <rect class="cls-1" x="65.45" y="130.9" width="9.35" height="9.35"/>
      <rect class="cls-1" x="74.8" y="130.9" width="9.35" height="9.35"/>
      <rect class="cls-1" x="84.15" y="130.9" width="9.35" height="9.35"/>
      <rect class="cls-1" x="93.5" y="130.9" width="9.35" height="9.35"/>
      <rect class="cls-1" x="102.85" y="130.9" width="9.35" height="9.35"/>
      <rect class="cls-1" x="112.2" y="130.9" width="9.35" height="9.35"/>
      <rect class="cls-1" x="121.55" y="130.9" width="9.35" height="9.35"/>
      <rect class="cls-1" x="130.9" y="130.9" width="9.35" height="9.35"/>
      <rect class="cls-1" x="140.25" y="130.9" width="9.35" height="9.35"/>
      <rect class="cls-1" x="149.6" y="130.9" width="9.35" height="9.35"/>
      <rect class="cls-1" x="158.95" y="130.9" width="9.35" height="9.35"/>
      <rect class="cls-1" x="168.3" y="130.9" width="9.35" height="9.35"/>
    </g>
  </g>
</svg>