<?xml version="1.0" encoding="UTF-8"?>
<svg id="Layer_2" data-name="Layer 2" xmlns="http://www.w3.org/2000/svg" viewBox="0 0 4151.21 184.88">
  <defs>
    <style>
      .cls-1 {
        fill: #bb9aef;
      }
    </style>
  </defs>
  <g id="_ÎÓÈ_1" data-name="—ÎÓÈ_1">
    <g>
      <path class="cls-1" d="M1.95,1.95h4147.31v102.08c0,43.54-35.35,78.89-78.89,78.89H80.84C37.3,182.93,1.95,147.58,1.95,104.03V1.95h0Z"/>
      <path d="M4070.37,184.88H80.84C36.27,184.88,0,148.61,0,104.03V1.95C0,.87.87,0,1.95,0h4147.31c1.08,0,1.95.87,1.95,1.95v102.08c0,44.58-36.27,80.84-80.84,80.84ZM3.9,3.9v100.13c0,42.43,34.52,76.94,76.94,76.94h3989.53c42.42,0,76.94-34.52,76.94-76.94V3.9H3.9Z"/>
    </g>
  </g>
</svg>