<?xml version="1.0" encoding="UTF-8"?>
<svg id="Layer_2" data-name="Layer 2" xmlns="http://www.w3.org/2000/svg" viewBox="0 0 735.5 373.77">
  <defs>
    <style>
      .cls-1 {
        fill: #fff5e3;
      }

      .cls-2 {
        fill: #c5e24b;
      }
    </style>
  </defs>
  <g id="_ÎÓÈ_1" data-name="—ÎÓÈ_1">
    <g>
      <g>
        <rect x="12.87" y="12.09" width="722.63" height="361.68" rx="21.74" ry="21.74"/>
        <g>
          <rect class="cls-2" x="1.95" y="1.95" width="722.63" height="361.68" rx="21.74" ry="21.74"/>
          <path d="M702.83,365.58H23.69c-13.06,0-23.69-10.63-23.69-23.69V23.69C0,10.63,10.63,0,23.69,0h679.14c13.06,0,23.69,10.63,23.69,23.69v318.2c0,13.06-10.63,23.69-23.69,23.69ZM23.69,3.9C12.78,3.9,3.9,12.78,3.9,23.69v318.2c0,10.91,8.88,19.79,19.79,19.79h679.14c10.91,0,19.79-8.88,19.79-19.79V23.69c0-10.91-8.88-19.79-19.79-19.79H23.69Z"/>
        </g>
      </g>
      <g>
        <g>
          <rect class="cls-1" x="87.46" y="274.92" width="551.6" height="14.6"/>
          <path d="M639.06,291.47H87.46c-1.08,0-1.95-.87-1.95-1.95v-14.6c0-1.08.87-1.95,1.95-1.95h551.6c1.08,0,1.95.87,1.95,1.95v14.6c0,1.08-.87,1.95-1.95,1.95ZM89.41,287.57h547.7v-10.7H89.41v10.7Z"/>
        </g>
        <g>
          <rect x="87.46" y="274.92" width="405.92" height="14.6"/>
          <path d="M493.38,291.47H87.46c-1.08,0-1.95-.87-1.95-1.95v-14.6c0-1.08.87-1.95,1.95-1.95h405.92c1.08,0,1.95.87,1.95,1.95v14.6c0,1.08-.87,1.95-1.95,1.95ZM89.41,287.57h402.02v-10.7H89.41v10.7Z"/>
        </g>
        <g>
          <path d="M494.21,309.9h0c-5.46,0-9.89-4.43-9.89-9.89v-35.6c0-5.46,4.43-9.89,9.89-9.89h0c5.46,0,9.89,4.43,9.89,9.89v35.6c0,5.46-4.43,9.89-9.89,9.89Z"/>
          <path d="M494.21,311.85c-6.53,0-11.84-5.31-11.84-11.84v-35.6c0-6.53,5.31-11.84,11.84-11.84s11.84,5.31,11.84,11.84v35.6c0,6.53-5.31,11.84-11.84,11.84ZM494.21,256.48c-4.38,0-7.94,3.56-7.94,7.94v35.6c0,4.38,3.56,7.94,7.94,7.94s7.94-3.56,7.94-7.94v-35.6c0-4.38-3.56-7.94-7.94-7.94Z"/>
        </g>
      </g>
      <g>
        <circle class="cls-1" cx="363.26" cy="144.59" r="61.54"/>
        <path d="M363.26,208.07c-35.01,0-63.49-28.48-63.49-63.49s28.48-63.49,63.49-63.49,63.49,28.48,63.49,63.49-28.48,63.49-63.49,63.49ZM363.26,85c-32.86,0-59.59,26.73-59.59,59.59s26.73,59.59,59.59,59.59,59.59-26.73,59.59-59.59-26.73-59.59-59.59-59.59Z"/>
      </g>
      <polygon points="344.04 116.04 399.87 144.8 344.17 173.19 344.04 116.04"/>
      <g>
        <polygon points="142.7 116.04 86.87 144.8 142.57 173.19 142.7 116.04"/>
        <path d="M89.02,204.13c-1.08,0-1.95-.87-1.95-1.95v-115.13c0-1.08.87-1.95,1.95-1.95s1.95.87,1.95,1.95v115.13c0,1.08-.87,1.95-1.95,1.95Z"/>
      </g>
      <g>
        <polygon points="580.89 173.19 636.72 144.42 581.02 116.04 580.89 173.19"/>
        <path d="M634.57,204.13c-1.08,0-1.95-.87-1.95-1.95v-115.13c0-1.08.87-1.95,1.95-1.95s1.95.87,1.95,1.95v115.13c0,1.08-.87,1.95-1.95,1.95Z"/>
      </g>
    </g>
  </g>
</svg>